<svg width="15" height="13" viewBox="0 0 15 13" fill="none" xmlns="http://www.w3.org/2000/svg">
<g id="Layer_1" clip-path="url(#clip0_495_2140)">
<path id="Vector" d="M0 3.77163C0.0711605 3.35975 0.156397 2.95162 0.337035 2.56829C1.02401 1.11278 2.1833 0.23677 3.83524 0.0353357C5.11182 -0.120249 6.24413 0.254433 7.2048 1.08272C7.3045 1.16878 7.32484 1.13946 7.36706 1.04288C7.78308 0.0965927 8.95097 -0.278841 9.87684 0.234891C9.94956 0.275102 10.0047 0.29502 10.0891 0.249547C10.8242 -0.14618 11.5663 -0.0695151 12.1974 0.467141C12.274 0.532156 12.3389 0.554329 12.4441 0.532532C13.6081 0.290886 14.6864 1.07746 14.7513 2.21841C14.7701 2.54649 14.6958 2.86405 14.5226 3.15042C14.4483 3.27331 14.4495 3.3481 14.5562 3.46272C15.1544 4.1031 15.1458 5.06667 14.5464 5.70705C14.4851 5.77282 14.4698 5.8213 14.5175 5.9021C15.1228 6.92881 14.487 8.15846 13.3739 8.39033C13.2566 8.41476 13.2499 8.49481 13.2409 8.57899C13.1835 9.11677 12.9176 9.53429 12.4539 9.83532C12.2068 9.99579 11.9327 10.0909 11.634 10.107C11.5389 10.1123 11.5108 10.148 11.5014 10.2329C11.4428 10.7662 11.1894 11.1927 10.7304 11.5017C10.4766 11.6723 10.1908 11.7613 9.88544 11.7914C9.79786 11.8 9.76267 11.8237 9.74781 11.9132C9.64537 12.5325 9.24265 12.9121 8.59908 12.9917C8.32382 13.0259 8.06733 12.9527 7.83195 12.814C7.76978 12.7772 7.73381 12.7689 7.6779 12.8362C7.49922 13.0511 7.26306 13.0526 7.04997 12.8456C6.43181 12.2461 5.81639 11.6445 5.19901 11.0443C3.91617 9.79774 2.63528 8.5493 1.34814 7.3065C0.602909 6.58757 0.143103 5.73712 0.0164216 4.72544C0.0140757 4.70702 0.00547388 4.68974 0 4.6717C0 4.3718 0 4.07153 0 3.77163ZM7.76196 6.72587C7.76196 8.36665 7.76196 10.0071 7.76196 11.6478C7.76196 11.7181 7.76001 11.7888 7.76509 11.8587C7.79207 12.2082 8.12207 12.4867 8.50446 12.484C8.86417 12.4818 9.18361 12.2048 9.21372 11.8752C9.2231 11.773 9.20042 11.7061 9.08743 11.6738C8.97013 11.6403 8.86378 11.5794 8.76564 11.5099C8.63583 11.4182 8.61472 11.2514 8.71246 11.1386C8.80122 11.0364 8.93259 11.0195 9.08312 11.1029C9.29973 11.2232 9.52807 11.2848 9.77987 11.2796C10.3703 11.2672 10.861 10.853 10.9595 10.2769C11.0518 9.73648 10.7034 9.17915 10.1619 8.99388C10.0692 8.96231 9.98944 8.96006 9.89795 9.00591C9.68721 9.11113 9.46043 9.16525 9.22114 9.15097C9.08664 9.1427 8.99202 9.04988 8.97912 8.92774C8.96661 8.80598 9.04129 8.69737 9.16953 8.66166C9.22505 8.64626 9.28448 8.63912 9.34235 8.63498C9.52846 8.62183 9.6919 8.55418 9.83891 8.44745C10.0985 8.25842 10.2014 7.99648 10.2291 7.69245C10.2444 7.52672 10.3636 7.43916 10.5118 7.45006C10.66 7.46095 10.7484 7.5658 10.7507 7.73417C10.7542 7.99536 10.6698 8.23249 10.5325 8.45309C10.4891 8.52262 10.4837 8.56358 10.5681 8.60755C10.9513 8.80748 11.2246 9.10362 11.3833 9.49446C11.4197 9.5839 11.4736 9.61096 11.5741 9.60044C12.1962 9.53505 12.6224 9.14533 12.7154 8.55306C12.7299 8.46136 12.7045 8.41551 12.6063 8.39334C11.9843 8.25316 11.5636 7.88787 11.3321 7.31965C11.304 7.25012 11.2649 7.2163 11.1894 7.20014C10.9826 7.15655 10.7906 7.07763 10.6201 6.95436C10.4684 6.845 10.4281 6.70332 10.5157 6.57931C10.6096 6.44627 10.757 6.43124 10.9259 6.53721C11.3939 6.8311 11.8654 6.78036 12.2615 6.39366C12.4062 6.25235 12.5481 6.23694 12.6705 6.34893C12.7803 6.44965 12.7733 6.60411 12.6513 6.73865C12.4742 6.93369 12.2599 7.08139 12.0015 7.15241C11.8556 7.19225 11.8725 7.24862 11.9315 7.34746C12.1888 7.77588 12.6998 7.99348 13.2355 7.89727C14.012 7.75822 14.4632 6.86116 14.0863 6.21101C14.0397 6.13059 13.9936 6.1009 13.9021 6.14412C13.7879 6.19823 13.6648 6.23131 13.5393 6.24934C13.3899 6.27039 13.2624 6.18508 13.2304 6.05054C13.2007 5.92652 13.2773 5.80363 13.418 5.75741C13.5056 5.72885 13.5971 5.71081 13.6835 5.67924C14.2868 5.45864 14.6055 4.81338 14.4084 4.21584C14.218 3.63897 13.5604 3.28759 12.9547 3.43378C12.8519 3.45858 12.8253 3.48978 12.8777 3.58561C12.9653 3.74533 13.0075 3.91895 13.0016 4.10047C12.9981 4.21471 12.9375 4.29777 12.8245 4.3346C12.7256 4.36691 12.6306 4.35151 12.5536 4.2786C12.4867 4.21546 12.4687 4.13279 12.4644 4.04673C12.4558 3.86934 12.3784 3.72503 12.2502 3.59838C12.0996 3.44994 11.9084 3.41161 11.7075 3.3853C11.562 3.36613 11.4647 3.24963 11.4748 3.12336C11.485 2.99559 11.5968 2.89788 11.7403 2.88998C11.9409 2.87871 12.1282 2.92719 12.3037 3.01475C12.389 3.05722 12.4613 3.0621 12.5516 3.02452C12.9778 2.84752 13.4126 2.83549 13.8474 2.99258C13.9518 3.03016 14.0053 3.01438 14.055 2.91967C14.2923 2.46757 14.2841 2.02036 14.0014 1.59607C13.7183 1.17066 13.2941 0.981624 12.771 0.996656C12.6615 0.999663 12.6079 1.03161 12.6568 1.15337C12.7295 1.33376 12.7647 1.52429 12.7483 1.71783C12.7362 1.86177 12.6259 1.95121 12.4855 1.95046C12.3456 1.94933 12.2447 1.85613 12.2275 1.71257C12.2181 1.63365 12.2111 1.55398 12.1974 1.47581C12.1071 0.961706 11.6105 0.542303 11.0651 0.517499C10.4817 0.491193 9.95269 0.855352 9.80685 1.3781C9.78456 1.4574 9.79629 1.50024 9.87996 1.52805C9.9914 1.56526 10.0903 1.62651 10.1783 1.70243C10.3007 1.80765 10.3214 1.9561 10.2307 2.06583C10.1333 2.18346 9.9957 2.19849 9.85416 2.1068C9.54762 1.90762 9.42524 1.90762 9.12965 2.1068C8.99945 2.19474 8.85713 2.18384 8.76173 2.07824C8.6675 1.97414 8.67493 1.83246 8.78402 1.72347C8.88059 1.62689 8.99906 1.5615 9.12926 1.5179C9.20081 1.49385 9.245 1.4574 9.25946 1.38374C9.30521 1.15036 9.39748 0.934648 9.54058 0.74073C9.58398 0.682104 9.56874 0.649408 9.50539 0.622726C9.36581 0.563724 9.22075 0.523512 9.06827 0.517123C8.33242 0.485931 7.7647 1.00643 7.76392 1.71896C7.76196 3.38793 7.76314 5.05653 7.76314 6.7255L7.76196 6.72587ZM7.18564 12.2713C7.19815 12.2597 7.21067 12.248 7.22318 12.2364C7.22318 12.1755 7.22318 12.115 7.22318 12.0541C7.22318 8.77704 7.21888 5.4996 7.23061 2.22255C7.23178 1.91964 7.14185 1.7122 6.91547 1.50475C5.84806 0.528022 4.18908 0.233763 2.84681 0.805369C0.345245 1.87041 -0.275649 4.97573 1.63943 6.85327C2.58524 7.78039 3.53535 8.70376 4.48428 9.62825C5.30302 10.4257 6.12332 11.2221 6.94205 12.0195C7.02573 12.1011 7.10432 12.1871 7.18525 12.2709L7.18564 12.2713Z" fill="#5D5C72"/>
<path id="Vector_2" d="M8.47898 5.45329C8.49228 4.62125 9.29146 3.85647 10.1579 3.84745C10.369 3.8452 10.4942 3.93276 10.5035 4.08948C10.5125 4.24168 10.3933 4.35142 10.181 4.36119C9.8584 4.37622 9.58823 4.49347 9.36301 4.71332C9.15344 4.91814 9.03145 5.16053 9.01738 5.44991C9.01699 5.4593 9.0166 5.4687 9.01542 5.47809C8.99587 5.68328 8.89382 5.79903 8.73665 5.79452C8.5693 5.78964 8.47546 5.66524 8.47859 5.45329H8.47898Z" fill="#5D5C72"/>
<path id="Vector_3" d="M0.990993 4.01395C1.08288 2.59151 2.13816 1.35059 3.61689 1.03566C3.82255 0.991692 4.03095 0.975532 4.23974 0.961251C4.4411 0.947346 4.57521 1.04694 4.58538 1.2059C4.59554 1.36449 4.47277 1.46747 4.26594 1.47348C2.8091 1.51482 1.6201 2.62083 1.52587 4.02072C1.52196 4.07634 1.51531 4.13459 1.4942 4.18532C1.44572 4.30257 1.35149 4.36045 1.21777 4.34654C1.08874 4.33301 1.01758 4.25635 0.992557 4.13985C0.983955 4.09964 0.990993 4.05604 0.990993 4.01395Z" fill="#5D5C72"/>
<path id="Vector_4" d="M1.70825 5.27797C1.7063 5.41928 1.64609 5.50496 1.52566 5.53954C1.39976 5.57561 1.29146 5.53766 1.22538 5.42679C1.1593 5.31706 1.11942 5.19492 1.10691 5.06902C1.09518 4.94876 1.15539 4.85895 1.27504 4.81911C1.39781 4.77815 1.51354 4.80295 1.58157 4.91344C1.65352 5.02994 1.6891 5.16222 1.70825 5.27797Z" fill="#5D5C72"/>
</g>
<defs>
<clipPath id="clip0_495_2140">
<rect width="15" height="13" fill="white"/>
</clipPath>
</defs>
</svg>
